<svg xmlns="http://www.w3.org/2000/svg" xmlns:xlink="http://www.w3.org/1999/xlink" width="512" height="512" viewBox="0 0 512 512" fill="none"><g opacity="1"  transform="translate(0 0)  rotate(0)"><mask id="bg-mask-0" fill="white"><use xlink:href="#path_0"></use></mask><g mask="url(#bg-mask-0)" ><path id="矩形 1" fill-rule="evenodd" style="fill:#A855F7" opacity="0.7" d="M156 456L356 456C411.23 456 456 411.23 456 356L456 156C456 100.77 411.23 56 356 56L156 56C100.77 56 56 100.77 56 156L56 356C56 411.23 100.77 456 156 456Z"></path><path id="圆形 1" fill-rule="evenodd" style="fill:#1ABCFE" opacity="1" d="M228 100C157.31 100 100 157.31 100 228C100 298.69 157.31 356 228 356C298.69 356 356 298.69 356 228C356 157.31 298.69 100 228 100Z"></path><path id="三角形 1" fill-rule="evenodd" style="fill:#0ACF83" opacity="1" d="M299.43 345L382.57 345C413.36 345 432.61 311.67 417.21 285L375.64 213C360.24 186.34 321.76 186.34 306.36 213L264.79 285C249.39 311.67 268.64 345 299.43 345Z"></path><path id="矩形 2" fill-rule="evenodd" fill="url(#linear_0)" opacity="1" d="M136 409L376 409C384.28 409 391 402.28 391 394L391 394C391 385.72 384.28 379 376 379L136 379C127.72 379 121 385.72 121 394L121 394C121 402.28 127.72 409 136 409Z"></path></g></g><defs><rect id="path_0" x="0" y="0" width="512" height="512" /><linearGradient id="linear_0" x1="0%" y1="50%" x2="100%" y2="50%" gradientUnits="objectBoundingBox"><stop offset="0" stop-color="#FF9E42" stop-opacity="1" /><stop offset="1" stop-color="#FF5C5C" stop-opacity="0.9" /></linearGradient></defs></svg>