<svg xmlns="http://www.w3.org/2000/svg" xmlns:xlink="http://www.w3.org/1999/xlink" width="512" height="512" viewBox="0 0 512 512" fill="none"><defs><rect id="path_0" x="0" y="0" width="512" height="512" /><filter id="filter_3" x="0" y="0" width="512" height="512" filterUnits="userSpaceOnUse" color-interpolation-filters="sRGB"><feFlood flood-opacity="0" result="BackgroundImageFix"/>
          <feBlend mode="normal" in="SourceGraphic" in2="BackgroundImageFix" result="shape"/>
          <feGaussianBlur stdDeviation="1" result="effect1_foregroundBlur" /></filter><filter id="filter_5" x="0" y="0" width="416" height="450" filterUnits="userSpaceOnUse" color-interpolation-filters="sRGB"><feFlood flood-opacity="0" result="BackgroundImageFix"/>
          <feBlend mode="normal" in="SourceGraphic" in2="BackgroundImageFix" result="shape"/>
          <feGaussianBlur stdDeviation="1" result="effect1_foregroundBlur" /></filter><filter id="filter_7" x="0" y="0" width="696" height="562" filterUnits="userSpaceOnUse" color-interpolation-filters="sRGB"><feFlood flood-opacity="0" result="BackgroundImageFix"/>
          <feBlend mode="normal" in="SourceGraphic" in2="BackgroundImageFix" result="shape"/>
          <feGaussianBlur stdDeviation="1" result="effect1_foregroundBlur" /></filter><linearGradient id="linear_0" x1="0%" y1="50%" x2="100%" y2="50%" gradientUnits="objectBoundingBox"><stop offset="0" stop-color="#FF9E42" stop-opacity="0.9" /><stop offset="1" stop-color="#FF5C5C" stop-opacity="0.81" /></linearGradient><filter id="filter_9" x="0" y="0" width="512" height="788" filterUnits="userSpaceOnUse" color-interpolation-filters="sRGB"><feFlood flood-opacity="0" result="BackgroundImageFix"/>
          <feBlend mode="normal" in="SourceGraphic" in2="BackgroundImageFix" result="shape"/>
          <feGaussianBlur stdDeviation="1" result="effect1_foregroundBlur" /></filter></defs><g opacity="1" transform="translate(0 0)  rotate(0 256 256)"><mask id="bg-mask-0" fill="white"><use xlink:href="#path_0"></use></mask><g mask="url(#bg-mask-0)" ><g id="矩形 1" filter="url(#filter_3)"><path id="矩形 1" fill-rule="evenodd" style="fill:#A855F7" transform="translate(56 56)  rotate(0 200 200)" opacity="0.75" d="M100,400L300,400C355.23,400 400,355.23 400,300L400,100C400,44.77 355.23,0 300,0L100,0C44.77,0 0,44.77 0,100L0,300C0,355.23 44.77,400 100,400Z " /></g><g id="圆形 1" filter="url(#filter_5)"><path id="圆形 1" fill-rule="evenodd" style="fill:#1ABCFE" transform="translate(80 97)  rotate(0 128 128)" opacity="0.9" d="M128,0C57.31,0 0,57.31 0,128C0,198.69 57.31,256 128,256C198.69,256 256,198.69 256,128C256,57.31 198.69,0 128,0Z " /></g><g id="三角形 1" filter="url(#filter_7)"><path id="三角形 1" fill-rule="evenodd" style="fill:#0ACF83" transform="translate(220 153)  rotate(0 128 128)" opacity="0.9" d="M86.43,192L169.57,192C183.86,192 197.07,184.38 204.21,172C211.36,159.62 211.36,144.38 204.21,132L162.64,60C155.49,47.62 142.29,40 128,40C113.71,40 100.51,47.62 93.36,60L51.79,132C44.64,144.38 44.64,159.62 51.79,172C58.93,184.38 72.14,192 86.43,192Z " /></g><g id="矩形 2" filter="url(#filter_9)"><path id="矩形 2" fill-rule="evenodd" fill="url(#linear_0)" transform="translate(106 379)  rotate(0 150 15)" opacity="1" d="M15,30L285,30C288.98,30 292.79,28.42 295.61,25.61C298.42,22.79 300,18.98 300,15L300,15C300,11.02 298.42,7.21 295.61,4.39C292.79,1.58 288.98,0 285,0L15,0C11.02,0 7.21,1.58 4.39,4.39C1.58,7.21 0,11.02 0,15L0,15C0,18.98 1.58,22.79 4.39,25.61C7.21,28.42 11.02,30 15,30Z " /></g></g></g></svg>